<?xml version="1.0" standalone="no"?>
<!DOCTYPE svg PUBLIC "-//W3C//DTD SVG 20010904//EN"
 "http://www.w3.org/TR/2001/REC-SVG-20010904/DTD/svg10.dtd">
<svg version="1.0" xmlns="http://www.w3.org/2000/svg"
 width="2198.000000pt" height="579.000000pt" viewBox="0 0 2198.000000 579.000000"
 preserveAspectRatio="xMidYMid meet">

<g transform="translate(0.000000,579.000000) scale(0.100000,-0.100000)"
fill="#000000" stroke="none">
<path d="M3203 5775 c-340 -62 -643 -311 -875 -722 -61 -108 -154 -311 -146
-317 1 -2 65 14 141 35 242 67 445 108 727 146 100 13 199 18 385 18 221 0
263 -3 363 -23 249 -50 427 -129 651 -289 l24 -18 -7 70 c-4 39 -18 122 -32
185 -99 447 -347 757 -696 874 -154 52 -380 69 -535 41z"/>
<path d="M3140 4765 c-320 -36 -658 -107 -936 -196 -62 -20 -94 -35 -98 -47
-5 -18 -20 -79 -30 -124 l-6 -27 87 30 c429 146 1014 217 1356 165 319 -49
586 -180 813 -400 l76 -73 10 26 c19 50 58 214 58 246 0 27 -10 42 -55 84
-160 146 -381 253 -622 302 -139 28 -464 35 -653 14z"/>
<path d="M17565 4589 c-38 -5 -117 -21 -175 -35 -396 -98 -660 -332 -766 -680
-26 -83 -28 -102 -28 -279 -1 -153 2 -203 17 -254 57 -209 194 -356 441 -476
139 -68 293 -121 556 -191 522 -140 683 -205 793 -323 74 -79 91 -126 92 -251
0 -95 -3 -111 -29 -167 -51 -112 -168 -198 -321 -238 -399 -103 -1028 56
-1388 349 -32 26 -60 46 -62 44 -1 -2 -57 -103 -123 -226 l-120 -222 31 -24
c286 -215 698 -372 1095 -417 138 -15 509 -7 622 14 458 86 733 302 835 654
45 155 50 397 10 548 -43 166 -155 317 -311 421 -166 110 -370 186 -805 299
-445 116 -592 173 -689 266 -85 81 -120 197 -99 329 29 190 152 312 374 371
117 32 386 32 532 1 241 -52 450 -147 605 -274 l46 -38 110 197 c60 109 114
207 120 219 10 19 4 26 -70 74 -223 147 -468 245 -743 297 -96 18 -448 26
-550 12z"/>
<path d="M8413 3704 l-798 -876 -3 871 -2 871 -265 0 -265 0 0 -1675 0 -1675
265 0 265 0 0 508 0 508 261 272 c143 150 263 272 267 272 4 0 261 -350 572
-776 311 -427 570 -778 575 -780 6 -3 136 -3 289 -2 l278 3 -696 930 c-382
512 -695 933 -696 936 0 4 1169 1320 1303 1467 l20 22 -286 0 -286 0 -798
-876z"/>
<path d="M11063 3952 c-139 -345 -443 -1101 -676 -1680 l-424 -1052 286 2 286
3 142 370 c78 204 156 407 173 453 l32 82 648 0 648 0 110 -277 c60 -153 140
-358 178 -455 l69 -178 283 0 c155 0 282 1 282 3 0 1 -303 756 -673 1677
l-672 1675 -220 2 -220 3 -252 -628z m738 -687 c144 -391 264 -718 267 -727 4
-17 -27 -18 -542 -18 -300 0 -546 3 -546 6 0 10 553 1454 556 1452 1 -2 120
-323 265 -713z"/>
<path d="M13210 3651 c0 -563 4 -970 10 -1032 36 -356 132 -648 292 -881 222
-325 567 -508 1012 -537 242 -16 494 13 683 80 421 149 716 501 836 999 62
254 61 226 64 1308 l4 992 -265 0 -265 0 -4 -952 c-3 -826 -6 -967 -20 -1058
-53 -333 -167 -567 -347 -715 -199 -163 -497 -222 -787 -155 -384 89 -618 420
-672 949 -7 64 -11 447 -11 1017 l0 914 -265 0 -265 0 0 -929z"/>
<path d="M19210 4345 l0 -235 560 0 560 0 0 -1445 0 -1445 265 0 265 0 0 1445
0 1445 560 0 560 0 0 235 0 235 -1385 0 -1385 0 0 -235z"/>
<path d="M2970 4429 c-242 -26 -581 -99 -795 -172 -115 -39 -118 -43 -84 -131
24 -67 6 -65 184 -13 66 19 185 46 265 61 682 121 1195 5 1565 -355 l102 -99
40 62 c89 139 97 157 82 185 -23 42 -183 188 -271 246 -146 97 -269 149 -458
194 -92 22 -131 25 -325 28 -121 2 -258 -1 -305 -6z"/>
<path d="M968 4280 c-195 -41 -426 -136 -578 -239 -343 -231 -460 -522 -348
-871 112 -351 522 -678 992 -790 44 -11 81 -18 83 -16 2 1 -16 45 -40 97 -136
293 -223 596 -248 866 -22 246 30 456 162 652 58 87 163 203 253 279 l49 42
-119 -1 c-75 0 -152 -7 -206 -19z"/>
<path d="M1420 4194 c-201 -150 -340 -328 -399 -515 -89 -277 -5 -730 225
-1216 29 -62 59 -113 66 -113 7 0 30 5 50 10 l37 11 -49 92 c-182 342 -283
730 -252 970 35 271 193 502 474 690 43 29 77 55 78 59 0 9 -120 68 -139 68
-9 0 -50 -25 -91 -56z"/>
<path d="M2760 4095 c-192 -21 -450 -75 -553 -114 l-28 -11 20 -28 c10 -15 43
-51 73 -79 51 -50 55 -52 88 -43 148 40 549 56 745 31 343 -45 587 -142 784
-311 l71 -61 63 49 c34 28 73 62 86 76 l24 25 -47 55 c-56 66 -184 171 -278
227 -274 166 -637 230 -1048 184z"/>
<path d="M1690 4035 c-280 -173 -428 -383 -455 -645 -14 -131 33 -377 110
-585 48 -132 163 -365 179 -365 6 0 27 16 46 35 l34 35 -28 47 c-170 295 -247
611 -202 822 42 199 191 389 408 524 37 23 68 47 68 52 0 14 -70 125 -79 125
-4 0 -40 -20 -81 -45z"/>
<path d="M1804 3789 c-146 -95 -255 -228 -305 -369 -19 -54 -23 -86 -23 -190
0 -134 22 -240 80 -388 31 -76 112 -242 119 -242 3 0 19 28 36 61 l31 62 -40
86 c-63 136 -86 222 -86 326 0 188 82 345 245 471 50 38 59 50 59 76 0 47 -21
158 -30 158 -4 0 -43 -23 -86 -51z"/>
<path d="M2590 3759 c-47 -5 -105 -13 -130 -17 l-44 -7 94 -61 c397 -257 891
-385 1185 -309 76 19 165 55 165 65 0 5 -21 26 -47 47 -165 136 -356 217 -623
264 -134 24 -462 34 -600 18z"/>
<path d="M1855 3476 c-130 -134 -173 -295 -126 -477 22 -84 56 -165 64 -152
31 49 108 400 122 548 3 39 8 85 11 103 7 46 -9 41 -71 -22z"/>
<path d="M4845 3426 c-94 -13 -90 -3 -57 -161 32 -155 46 -330 38 -505 -20
-446 -114 -786 -291 -1050 -30 -46 -55 -86 -55 -90 0 -6 131 -70 171 -83 12
-4 27 14 56 66 192 347 282 798 271 1359 -5 215 -28 453 -47 469 -3 3 -42 1
-86 -5z"/>
<path d="M5104 3408 c28 -136 38 -317 33 -583 -5 -294 -19 -435 -62 -651 -44
-219 -132 -470 -216 -620 l-31 -54 44 -2 c93 -3 207 4 284 18 434 77 737 408
834 912 55 287 27 486 -93 654 -124 173 -365 299 -657 343 -141 22 -144 22
-136 -17z"/>
<path d="M4520 3354 c-41 -14 -78 -29 -82 -32 -4 -4 6 -57 22 -118 56 -216 63
-467 20 -716 -36 -211 -124 -425 -230 -556 -44 -54 -49 -66 -39 -80 30 -40
134 -142 145 -142 16 0 91 114 142 216 175 350 237 905 149 1339 -16 79 -26
110 -37 112 -8 1 -49 -10 -90 -23z"/>
<path d="M4250 3240 c-30 -17 -68 -40 -83 -53 l-28 -22 21 -79 c77 -301 32
-626 -115 -826 -19 -26 -35 -53 -35 -59 0 -15 87 -191 109 -219 16 -21 16 -21
58 36 54 72 115 194 147 295 69 212 92 521 55 742 -16 99 -50 215 -63 215 -6
0 -36 -14 -66 -30z"/>
<path d="M4012 3054 c-55 -64 -99 -155 -113 -229 -20 -104 5 -307 59 -490 l9
-30 31 49 c35 54 76 170 91 260 16 86 13 270 -4 371 -22 124 -24 126 -73 69z"/>
<path d="M2600 2473 c-110 -5 -335 -49 -426 -83 l-27 -11 69 -54 c171 -134
395 -243 600 -291 149 -35 406 -44 573 -20 119 18 271 60 271 76 0 16 -130
118 -216 170 -231 141 -565 224 -844 213z"/>
<path d="M1973 2310 c-35 -16 -63 -33 -63 -38 0 -19 270 -270 355 -330 363
-257 734 -356 1157 -311 122 13 252 45 366 89 75 29 82 34 76 53 -11 36 -64
139 -97 187 -17 25 -31 46 -31 47 -1 1 -38 -11 -83 -27 -151 -54 -286 -74
-493 -74 -216 -1 -313 14 -491 74 -196 65 -384 170 -538 298 -40 34 -79 62
-85 62 -6 0 -39 -13 -73 -30z"/>
<path d="M1752 2196 c-29 -17 -52 -34 -52 -37 0 -15 133 -173 229 -273 317
-327 672 -531 1055 -608 146 -29 459 -32 603 -5 108 20 249 60 312 88 l44 19
-7 63 c-14 130 -29 208 -40 203 -227 -101 -448 -142 -726 -133 -187 5 -311 28
-474 84 -287 98 -545 269 -783 517 l-109 114 -52 -32z"/>
<path d="M1537 2047 l-38 -32 87 -115 c222 -295 436 -503 702 -681 226 -151
468 -256 717 -309 129 -28 439 -38 594 -20 127 15 291 53 301 70 9 15 30 171
30 224 0 32 -3 37 -17 31 -61 -23 -224 -65 -313 -81 -81 -15 -152 -19 -315
-18 -188 0 -223 3 -336 27 -411 87 -782 303 -1115 650 -61 63 -142 154 -179
201 -38 47 -71 86 -74 86 -3 0 -23 -15 -44 -33z"/>
<path d="M1315 1839 c-166 -193 -238 -361 -237 -554 2 -258 136 -512 380 -721
384 -329 1051 -582 1477 -561 433 22 735 254 895 687 l30 83 -32 -7 c-495
-100 -915 -50 -1344 160 -142 69 -333 191 -460 294 -180 146 -402 379 -551
577 -46 62 -88 113 -91 112 -4 0 -34 -31 -67 -70z"/>
</g>
</svg>
